<?xml version="1.0" standalone="no"?>
<!DOCTYPE svg PUBLIC "-//W3C//DTD SVG 20010904//EN"
 "http://www.w3.org/TR/2001/REC-SVG-20010904/DTD/svg10.dtd">
<svg version="1.0" xmlns="http://www.w3.org/2000/svg"
 width="700.000000pt" height="700.000000pt" viewBox="0 0 700.000000 700.000000"
 preserveAspectRatio="xMidYMid meet">
<metadata>
Created by potrace 1.11, written by Peter Selinger 2001-2013
</metadata>
<g transform="translate(0.000000,700.000000) scale(0.100000,-0.100000)"
fill="#000000" stroke="none">
<path d="M10 5702 c-12 -4 -14 -4402 -2 -4403 28 -3 6943 -3 6965 0 l27 3 -2
2201 -3 2202 -3487 0 c-1919 0 -3492 -1 -3498 -3z m2306 -122 c11 -44 47 -179
78 -290 8 -30 27 -100 42 -155 15 -55 39 -147 55 -205 29 -108 138 -512 165
-610 9 -30 17 -62 19 -70 1 -8 24 -91 49 -185 25 -93 78 -287 116 -430 38
-143 74 -276 80 -295 6 -19 30 -109 54 -200 25 -91 86 -318 136 -505 118 -437
121 -447 125 -465 2 -8 14 -51 26 -95 12 -44 34 -127 50 -185 15 -58 50 -188
77 -290 28 -102 52 -194 54 -204 3 -19 -8 -20 -522 -21 -289 0 -534 1 -546 3
-13 2 -31 22 -46 50 -14 26 -44 83 -68 127 -23 44 -85 159 -138 255 -106 197
-141 262 -236 440 -37 69 -71 132 -76 140 -5 8 -22 40 -38 70 -31 59 -84 157
-124 230 -14 25 -60 110 -103 190 -99 185 -109 204 -310 575 -92 171 -186 344
-208 385 -22 41 -54 102 -72 135 -18 33 -97 179 -175 325 -205 382 -218 406
-270 500 -26 47 -75 139 -110 205 -35 66 -72 132 -82 147 -10 14 -18 29 -18
33 0 4 -30 62 -67 129 -77 141 -163 302 -163 307 0 2 503 4 1117 4 l1117 0 12
-45z m2202 40 c68 0 101 -3 97 -10 -5 -8 -62 -211 -100 -360 -3 -8 -18 -64
-34 -125 -16 -60 -39 -146 -51 -190 -11 -44 -25 -94 -31 -111 -5 -17 -11 -40
-13 -51 -2 -10 -21 -79 -41 -153 -20 -74 -38 -141 -40 -149 -3 -15 -82 -307
-220 -816 -30 -110 -79 -290 -108 -400 -30 -110 -75 -276 -100 -370 -26 -93
-55 -204 -66 -245 -11 -41 -49 -183 -84 -315 -36 -132 -75 -276 -87 -320 -12
-44 -46 -169 -76 -279 -30 -109 -54 -206 -54 -214 0 -47 -26 31 -93 283 -41
154 -77 289 -80 300 -2 11 -35 130 -72 265 -37 135 -80 295 -97 355 -16 61
-34 126 -39 145 -5 19 -11 43 -14 53 -2 10 -39 145 -81 300 -42 155 -77 287
-79 292 -8 36 -19 76 -30 115 -7 25 -36 131 -64 235 -28 105 -89 330 -135 500
-46 171 -100 371 -120 445 -19 74 -61 227 -92 340 -31 113 -60 221 -64 240 -5
19 -20 77 -34 128 -14 51 -26 97 -26 102 0 5 15 10 33 12 25 2 1236 1 2095 -2z
m2427 -10 c-2 -8 -14 -51 -25 -95 -38 -140 -82 -306 -239 -885 -11 -41 -43
-160 -71 -265 -28 -104 -67 -248 -87 -320 -19 -71 -39 -143 -43 -160 -8 -30
-73 -273 -177 -655 -30 -113 -56 -212 -58 -220 -2 -8 -19 -71 -38 -140 -19
-69 -49 -179 -67 -245 -93 -348 -121 -453 -129 -480 -5 -16 -39 -142 -76 -280
-37 -137 -74 -279 -84 -314 l-17 -63 -92 338 c-183 677 -512 1896 -592 2194
-45 168 -112 418 -150 555 -37 138 -113 421 -169 630 -57 209 -105 388 -107
397 -7 23 -23 23 1193 23 913 0 1032 -2 1028 -15z m16 -2141 c0 -1025 -1
-1916 -1 -1979 l0 -115 -532 0 c-362 0 -533 4 -535 11 -2 6 12 69 31 140 19
71 60 221 91 334 30 113 57 214 60 225 2 11 23 88 46 170 22 83 56 206 74 275
19 69 48 177 65 240 17 63 33 122 34 130 2 8 11 40 20 71 9 31 18 65 20 75 2
11 15 60 29 109 14 50 51 185 82 300 31 116 79 293 106 395 28 102 68 253 90
335 22 83 49 179 59 215 19 67 149 553 155 580 17 71 99 360 102 356 2 -2 4
-842 4 -1867z"/>
</g>
</svg>
